<svg xmlns="http://www.w3.org/2000/svg" xmlns:xlink="http://www.w3.org/1999/xlink" width="500" zoomAndPan="magnify" viewBox="0 0 375 374.999991" height="500" preserveAspectRatio="xMidYMid meet" version="1.0"><defs><clipPath id="5ec9cbbd5d"><path d="M 5 30 L 370 30 L 370 179.582031 L 5 179.582031 Z M 5 30 " clip-rule="nonzero"/></clipPath><clipPath id="b3ff5688ed"><path d="M 194.484375 32.917969 L 368.015625 173.90625 C 369.066406 174.757812 369.464844 176.179688 369.011719 177.453125 C 368.558594 178.730469 367.351562 179.582031 366 179.582031 L 9 179.582031 C 7.648438 179.582031 6.441406 178.730469 5.988281 177.453125 C 5.535156 176.179688 5.933594 174.757812 6.984375 173.90625 L 180.515625 32.917969 C 184.585938 29.609375 190.414062 29.609375 194.484375 32.917969 Z M 194.484375 32.917969 " clip-rule="nonzero"/></clipPath><clipPath id="09192d01ac"><path d="M 47.238281 139.742188 L 327.761719 139.742188 L 327.761719 347.757812 L 47.238281 347.757812 Z M 47.238281 139.742188 " clip-rule="nonzero"/></clipPath><clipPath id="8369defa44"><path d="M 56.238281 139.742188 L 318.761719 139.742188 C 321.148438 139.742188 323.4375 140.6875 325.125 142.375 C 326.8125 144.0625 327.761719 146.355469 327.761719 148.742188 L 327.761719 338.757812 C 327.761719 341.144531 326.8125 343.433594 325.125 345.121094 C 323.4375 346.8125 321.148438 347.757812 318.761719 347.757812 L 56.238281 347.757812 C 53.851562 347.757812 51.5625 346.8125 49.875 345.121094 C 48.1875 343.433594 47.238281 341.144531 47.238281 338.757812 L 47.238281 148.742188 C 47.238281 146.355469 48.1875 144.0625 49.875 142.375 C 51.5625 140.6875 53.851562 139.742188 56.238281 139.742188 Z M 56.238281 139.742188 " clip-rule="nonzero"/></clipPath><clipPath id="a47e0bc14d"><path d="M 94.480469 110.429688 L 280.519531 110.429688 L 280.519531 348 L 94.480469 348 Z M 94.480469 110.429688 " clip-rule="nonzero"/></clipPath><clipPath id="8b0c37e166"><path d="M 233.519531 170.621094 C 227.824219 172.792969 222.753906 175.265625 218.304688 177.792969 C 223.9375 179.585938 230.835938 182.628906 237.570312 187.957031 C 259.296875 205.160156 261.613281 232.152344 261.988281 238.308594 C 257.601562 231.433594 246.007812 215.363281 224.460938 206.484375 C 221.359375 205.207031 218.339844 204.199219 215.433594 203.398438 C 215.871094 204.820312 216.105469 206.328125 216.105469 207.890625 C 216.105469 215.738281 210.195312 222.199219 202.585938 223.074219 C 204.921875 232.339844 207.0625 242.148438 208.886719 252.484375 C 215.109375 287.691406 215.976562 319.078125 214.796875 344.601562 C 211.128906 346.054688 204.769531 348.015625 196.722656 347.730469 C 190.292969 347.503906 185.148438 345.929688 181.800781 344.601562 C 186.175781 323.039062 189.722656 294.664062 188.03125 261.523438 C 187.171875 244.675781 185.09375 229.320312 182.46875 215.695312 C 180.410156 217.890625 177.492188 219.273438 174.242188 219.273438 C 170.238281 219.273438 166.726562 217.179688 164.726562 214.03125 C 147.492188 227.109375 140.234375 244.773438 137.75 251.734375 C 136.21875 246.882812 132.839844 233.859375 138.1875 219.296875 C 140.695312 212.464844 144.335938 207.449219 147.210938 204.167969 C 142.019531 204.296875 135.734375 204.988281 128.847656 206.9375 C 111.652344 211.800781 100.257812 221.800781 94.480469 227.773438 C 95.554688 223.085938 100.898438 202.121094 121.300781 188.9375 C 135.574219 179.714844 149.808594 179.082031 155.75 179.164062 C 151.535156 176.515625 146.648438 173.867188 141.085938 171.496094 C 125.617188 164.90625 111.308594 163.21875 101.042969 163.003906 C 106.832031 159.238281 125.914062 147.882812 150.582031 151.472656 C 161.898438 153.117188 170.632812 157.363281 176.257812 160.773438 C 174.324219 154.230469 171.492188 146.582031 167.269531 138.425781 C 160.964844 126.242188 153.664062 116.992188 147.582031 110.429688 C 153.429688 111.621094 166.980469 115.203125 179.332031 126.855469 C 193.507812 140.230469 197.40625 156.03125 198.53125 161.730469 C 203.796875 157.535156 213.011719 151.460938 225.761719 148.960938 C 254.351562 143.351562 276.722656 160.414062 280.519531 163.40625 C 268.71875 162.796875 251.871094 163.621094 233.519531 170.621094 Z M 233.519531 170.621094 " clip-rule="nonzero"/></clipPath></defs><g clip-path="url(#5ec9cbbd5d)"><g clip-path="url(#b3ff5688ed)"><path fill="#d5cbb9" d="M 0 27.242188 L 375 27.242188 L 375 179.582031 L 0 179.582031 Z M 0 27.242188 " fill-opacity="1" fill-rule="nonzero"/></g></g><g clip-path="url(#09192d01ac)"><g clip-path="url(#8369defa44)"><path fill="#d5cbb9" d="M 47.238281 139.742188 L 327.761719 139.742188 L 327.761719 347.757812 L 47.238281 347.757812 Z M 47.238281 139.742188 " fill-opacity="1" fill-rule="nonzero"/></g></g><g clip-path="url(#a47e0bc14d)"><g clip-path="url(#8b0c37e166)"><path fill="#544013" d="M 94.480469 110.429688 L 280.519531 110.429688 L 280.519531 347.757812 L 94.480469 347.757812 Z M 94.480469 110.429688 " fill-opacity="1" fill-rule="nonzero"/></g></g></svg>